<svg xmlns="http://www.w3.org/2000/svg" viewBox="0 0 100 100">
  <rect width="100" height="100" fill="#111"/>
  <g transform="translate(3.7961,78.2198) scale(0.038264,-0.038264)" fill="#d0d0d0">
    <path d="M831 1498 999 1477V0H852L836 139Q777 55 700.5 16.0Q624 -23 537 -23Q400 -23 311.0 46.0Q222 115 179.0 238.5Q136 362 136 525Q136 683 185.0 807.5Q234 932 326.5 1003.5Q419 1075 549 1075Q724 1075 831 951ZM593 940Q461 940 390.0 837.0Q319 734 319 525Q319 113 572 113Q661 113 725.0 163.5Q789 214 831 279V805Q788 869 727.0 904.5Q666 940 593 940Z"/>
    <path transform="translate(1200,0)" d="M1079 1053 696 0H501L121 1053H299L604 153L905 1053Z"/>
  </g>
</svg>
